<svg xmlns="http://www.w3.org/2000/svg" viewBox="0 0 363.37 94.73"><defs><style>.cls-1{fill:#4c9fe3;}.cls-2{fill:#316a99;}.cls-3{fill:#2d3849;}</style></defs><g id="Layer_2" data-name="Layer 2"><g id="_hkcGc1TWxMQnvrJ-o7pxz" data-name=" hkcGc1TWxMQnvrJ-o7pxz"><g id="_2pGrrHDisTubxdFeOQ9h1" data-name=" 2pGrrHDisTubxdFeOQ9h1"><path id="_fclVC_gW3knTSnF4jsxLl" data-name=" fclVC gW3knTSnF4jsxLl" class="cls-1" d="M53.47,19.76l-5.28-5.09a2.19,2.19,0,0,0-3.1.05L13.93,47a2.19,2.19,0,0,0,.06,3.1L45.79,80.8a2.19,2.19,0,0,0,3.1-.06L80,48.47A2.17,2.17,0,0,0,80,45.38l-12-11.64,8-8.29L91.12,40.1a9.38,9.38,0,0,1,.23,13.26L54.16,91.87a9.38,9.38,0,0,1-13.26.23l-38-36.73A9.39,9.39,0,0,1,2.63,42.1L39.82,3.6a9.37,9.37,0,0,1,13.26-.23l8.39,8.1Z"/><path id="_2yC6JlP49xF4W450B5ghS" data-name=" 2yC6JlP49xF4W450B5ghS" class="cls-2" d="M76.22,75l5.27,5.09a2.19,2.19,0,0,0,3.1,0l31.16-32.27a2.19,2.19,0,0,0-.06-3.1L83.9,13.93a2.19,2.19,0,0,0-3.1.06L49.64,46.25a2.19,2.19,0,0,0,0,3.1L61.75,61l-8,8.29L38.57,54.63a9.37,9.37,0,0,1-.23-13.26L75.52,2.86a9.38,9.38,0,0,1,13.26-.23l38,36.73a9.38,9.38,0,0,1,.23,13.27L89.87,91.13a9.38,9.38,0,0,1-13.27.23l-8.39-8.1Z"/></g><path id="_kCfronMV8leRKdbxpuZJG" data-name=" kCfronMV8leRKdbxpuZJG" class="cls-3" d="M185.92,42.74h0a22.44,22.44,0,0,1-1.53,8.41A18.87,18.87,0,0,1,173.45,62a23.38,23.38,0,0,1-8.61,1.52h-15.9V21.92h15.9a23.18,23.18,0,0,1,8.61,1.54,19.55,19.55,0,0,1,6.65,4.29,19.34,19.34,0,0,1,4.29,6.58A22.51,22.51,0,0,1,185.92,42.74Zm-7.92,0h0a19.29,19.29,0,0,0-.92-6.15A13.09,13.09,0,0,0,174.45,32a11.26,11.26,0,0,0-4.13-2.89,14.23,14.23,0,0,0-5.48-1h-8.1V57.4h8.1a14,14,0,0,0,5.48-1,11.14,11.14,0,0,0,4.13-2.89,13.09,13.09,0,0,0,2.63-4.61A19.2,19.2,0,0,0,178,42.74Zm25.8-9.18h0a14.23,14.23,0,0,1,5.14.89,11.24,11.24,0,0,1,4.05,2.6,12.14,12.14,0,0,1,2.65,4.21,16,16,0,0,1,1,5.69h0a11.72,11.72,0,0,1-.07,1.33,2.25,2.25,0,0,1-.26.84,1.06,1.06,0,0,1-.51.43,2.08,2.08,0,0,1-.81.13H196.69c.21,3,1,5.26,2.44,6.68a7.63,7.63,0,0,0,5.65,2.14h0a9.71,9.71,0,0,0,3-.41A13.44,13.44,0,0,0,210,57.2c.62-.33,1.17-.62,1.64-.89A2.76,2.76,0,0,1,213,55.9h0a1.51,1.51,0,0,1,1.29.67h0l2.08,2.59a11.8,11.8,0,0,1-2.65,2.31,14.3,14.3,0,0,1-3.07,1.5,16.77,16.77,0,0,1-3.25.8,24,24,0,0,1-3.21.23h0a15.86,15.86,0,0,1-5.74-1,12.83,12.83,0,0,1-4.6-3,14.06,14.06,0,0,1-3.08-5,19.06,19.06,0,0,1-1.13-6.83h0a16.39,16.39,0,0,1,1-5.69,13.65,13.65,0,0,1,2.81-4.64,13.31,13.31,0,0,1,4.47-3.12A14.61,14.61,0,0,1,203.8,33.56Zm.14,5.09h0a6.57,6.57,0,0,0-4.86,1.76,8.69,8.69,0,0,0-2.25,5h13.36a8.9,8.9,0,0,0-.37-2.61,6,6,0,0,0-1.15-2.14,5.57,5.57,0,0,0-2-1.46A6.78,6.78,0,0,0,203.94,38.65ZM248,34,236.23,63.56h-6.45L218,34h5.9a2.2,2.2,0,0,1,1.31.37,1.88,1.88,0,0,1,.73,1h0l5.71,15.78c.32.92.6,1.83.82,2.71s.42,1.77.59,2.65h0c.17-.88.37-1.77.59-2.65a24,24,0,0,1,.85-2.71h0l5.84-15.78a2,2,0,0,1,.72-1,2.07,2.07,0,0,1,1.24-.37H248Zm20.33,29.54H252.56V21.92h14.37a27.15,27.15,0,0,1,7,.78,13.34,13.34,0,0,1,4.75,2.22,8.54,8.54,0,0,1,2.72,3.48,11.66,11.66,0,0,1,.87,4.61h0a9,9,0,0,1-.44,2.8,8,8,0,0,1-1.33,2.51,10.08,10.08,0,0,1-2.31,2.12,14.05,14.05,0,0,1-3.32,1.61h0q8.58,1.94,8.58,9.27h0a11.87,11.87,0,0,1-1,4.9,10.67,10.67,0,0,1-2.94,3.87,13.82,13.82,0,0,1-4.75,2.55,20.58,20.58,0,0,1-6.45.92Zm-.14-18.25H260.3V57.52h7.86a11,11,0,0,0,3.62-.52,6.35,6.35,0,0,0,2.33-1.38,5.06,5.06,0,0,0,1.27-2,7.58,7.58,0,0,0,.39-2.45h0a6.66,6.66,0,0,0-.43-2.43A4.58,4.58,0,0,0,274,46.87a6.43,6.43,0,0,0-2.36-1.16,13,13,0,0,0-3.48-.4Zm-7.84-17.4V40h6.19a10.37,10.37,0,0,0,6-1.44,5.2,5.2,0,0,0,2-4.58h0c0-2.17-.62-3.71-1.84-4.64s-3.15-1.38-5.76-1.38H260.3Zm29.84-7.14h7.11V63.56h-7.11ZM317.9,33.56h0a16.24,16.24,0,0,1,6,1.06,13,13,0,0,1,4.59,3,13.33,13.33,0,0,1,2.93,4.78,18,18,0,0,1,1,6.3h0a18.06,18.06,0,0,1-1,6.34,13.82,13.82,0,0,1-2.93,4.81,12.87,12.87,0,0,1-4.59,3,16.24,16.24,0,0,1-6,1.07h0a16.33,16.33,0,0,1-6-1.07,13,13,0,0,1-4.62-3,13.59,13.59,0,0,1-3-4.81,17.83,17.83,0,0,1-1.06-6.34h0a17.72,17.72,0,0,1,1.06-6.3,12.89,12.89,0,0,1,7.58-7.81A16.33,16.33,0,0,1,317.9,33.56Zm0,25h0a6.26,6.26,0,0,0,5.46-2.47q1.77-2.47,1.77-7.26h0q0-4.78-1.77-7.29A6.23,6.23,0,0,0,317.9,39h0a6.31,6.31,0,0,0-5.53,2.52q-1.78,2.52-1.79,7.27h0q0,4.76,1.79,7.24A6.34,6.34,0,0,0,317.9,58.52Zm30.35-25h0a16.22,16.22,0,0,1,3.57.38A12.92,12.92,0,0,1,354.88,35h8.49v2.65a1.47,1.47,0,0,1-.34,1,2.1,2.1,0,0,1-1.18.52h0l-2.65.49a8.87,8.87,0,0,1,.6,3.34h0a8.86,8.86,0,0,1-.87,4,9.07,9.07,0,0,1-2.42,3,11.36,11.36,0,0,1-3.66,1.91,15.09,15.09,0,0,1-4.6.68h0A15.85,15.85,0,0,1,345,52.3h0c-.92.56-1.38,1.18-1.38,1.88h0a1.36,1.36,0,0,0,.82,1.3,6.82,6.82,0,0,0,2.16.6c.89.11,1.9.18,3,.21s2.29.09,3.48.19a28,28,0,0,1,3.48.5,10.26,10.26,0,0,1,3,1.14,6.09,6.09,0,0,1,2.16,2.12,6.56,6.56,0,0,1,.81,3.44h0a8.15,8.15,0,0,1-1,3.8,10.13,10.13,0,0,1-2.79,3.28,14.56,14.56,0,0,1-4.48,2.32,19.12,19.12,0,0,1-6.05.88h0a23.41,23.41,0,0,1-5.85-.64,13.9,13.9,0,0,1-4.1-1.73,7.48,7.48,0,0,1-2.43-2.5,5.81,5.81,0,0,1-.81-2.93h0a5,5,0,0,1,1.27-3.49,8.55,8.55,0,0,1,3.51-2.24h0a5.08,5.08,0,0,1-1.76-1.62,4.69,4.69,0,0,1-.66-2.62h0a4.52,4.52,0,0,1,.23-1.37,5.55,5.55,0,0,1,.71-1.39,6.9,6.9,0,0,1,1.19-1.32,8.16,8.16,0,0,1,1.7-1.1h0a9.24,9.24,0,0,1-3.52-3.23,8.56,8.56,0,0,1-1.29-4.72h0a8.86,8.86,0,0,1,.88-4,9,9,0,0,1,2.45-3,11.19,11.19,0,0,1,3.72-1.91A15.73,15.73,0,0,1,348.25,33.5Zm7.81,31.39h0a2,2,0,0,0-.52-1.41,3.39,3.39,0,0,0-1.41-.85,10.88,10.88,0,0,0-2.09-.45c-.8-.09-1.64-.17-2.53-.22l-2.77-.14c-.95,0-1.87-.13-2.75-.24h0a6.4,6.4,0,0,0-1.94,1.56,3.26,3.26,0,0,0-.74,2.09h0a2.88,2.88,0,0,0,.39,1.46,3.27,3.27,0,0,0,1.24,1.17,7.51,7.51,0,0,0,2.2.76,17.33,17.33,0,0,0,3.31.27h0a17,17,0,0,0,3.43-.3,8.27,8.27,0,0,0,2.37-.83,3.64,3.64,0,0,0,1.38-1.27A3.2,3.2,0,0,0,356.06,64.89Zm-7.81-16.82h0a6.71,6.71,0,0,0,2.31-.36,4.66,4.66,0,0,0,1.63-1,4.28,4.28,0,0,0,1-1.53,5.84,5.84,0,0,0,.32-2h0a4.65,4.65,0,0,0-1.3-3.47,5.46,5.46,0,0,0-3.94-1.28h0a5.45,5.45,0,0,0-3.93,1.28A4.65,4.65,0,0,0,343,43.23h0a5.29,5.29,0,0,0,.34,1.93,4,4,0,0,0,1,1.54,4.39,4.39,0,0,0,1.65,1A6.65,6.65,0,0,0,348.25,48.07Z"/></g></g></svg>