<svg width="364" height="96" viewBox="0 0 364 96" fill="none" xmlns="http://www.w3.org/2000/svg">
<path d="M51.1139 28.5613L47.3491 24.9332C47.2017 24.7903 47.0276 24.6778 46.8367 24.6022C46.6458 24.5266 46.4418 24.4894 46.2365 24.4927C46.0312 24.4961 45.8285 24.5398 45.6402 24.6215C45.4518 24.7032 45.2814 24.8213 45.1387 24.9689L22.9206 47.9776C22.7781 48.1254 22.6661 48.2998 22.5911 48.4909C22.5161 48.682 22.4795 48.886 22.4835 49.0913C22.4875 49.2965 22.5319 49.499 22.6143 49.687C22.6966 49.8751 22.8152 50.0451 22.9634 50.1872L45.6378 72.0697C45.7856 72.2122 45.9601 72.3241 46.1513 72.3991C46.3425 72.4741 46.5466 72.5107 46.7519 72.5067C46.9572 72.5027 47.1597 72.4583 47.3478 72.376C47.536 72.2937 47.706 72.175 47.8482 72.0269L70.0306 49.0254C70.1766 48.8815 70.2925 48.71 70.3716 48.521C70.4507 48.3319 70.4914 48.129 70.4914 47.9241C70.4914 47.7192 70.4507 47.5163 70.3716 47.3273C70.2925 47.1382 70.1766 46.9668 70.0306 46.8229L61.4742 38.5261L67.1785 32.6171L77.9595 43.0594C79.2347 44.2912 79.9682 45.9788 79.999 47.7512C80.0297 49.5236 79.3552 51.2356 78.1235 52.5109L51.6059 79.9602C50.3736 81.2349 48.6854 81.9683 46.9124 81.999C45.1395 82.0297 43.4268 81.3554 42.1511 80.1242L15.0559 53.9436C13.7764 52.7144 13.0375 51.0277 13.0014 49.2541C12.9653 47.4805 13.635 45.7652 14.8634 44.4849L41.381 17.0427C41.9907 16.4107 42.719 15.9051 43.5244 15.5547C44.3297 15.2044 45.1962 15.0162 46.0744 15.001C46.9526 14.9858 47.8251 15.1438 48.6421 15.466C49.4591 15.7882 50.2046 16.2683 50.8358 16.8788L56.8181 22.6523L51.1139 28.5613Z" fill="#4C9FE3"/>
<path d="M64.1139 28.5613L60.3491 24.9332C60.2017 24.7903 60.0276 24.6778 59.8367 24.6022C59.6458 24.5266 59.4418 24.4894 59.2365 24.4927C59.0312 24.4961 58.8285 24.5398 58.6402 24.6215C58.4518 24.7032 58.2814 24.8213 58.1387 24.9689L35.9206 47.9776C35.7781 48.1254 35.6661 48.2998 35.5911 48.4909C35.5161 48.682 35.4795 48.886 35.4835 49.0913C35.4875 49.2965 35.5319 49.499 35.6143 49.687C35.6966 49.8751 35.8152 50.0451 35.9634 50.1872L58.6378 72.0697C58.7856 72.2122 58.9601 72.3241 59.1513 72.3991C59.3425 72.4741 59.5466 72.5107 59.7519 72.5067C59.9572 72.5027 60.1597 72.4583 60.3478 72.376C60.536 72.2937 60.706 72.175 60.8482 72.0269L83.0306 49.0254C83.1766 48.8815 83.2925 48.71 83.3716 48.521C83.4507 48.3319 83.4914 48.129 83.4914 47.9241C83.4914 47.7192 83.4507 47.5163 83.3716 47.3273C83.2925 47.1382 83.1766 46.9668 83.0306 46.8229L74.4742 38.5261L80.1785 32.6171L90.9595 43.0594C92.2347 44.2912 92.9682 45.9788 92.999 47.7512C93.0297 49.5236 92.3552 51.2356 91.1235 52.5109L64.6059 79.9602C63.3736 81.2349 61.6854 81.9683 59.9124 81.999C58.1395 82.0297 56.4268 81.3554 55.1511 80.1242L28.0559 53.9436C26.7764 52.7144 26.0375 51.0277 26.0014 49.2541C25.9653 47.4805 26.635 45.7652 27.8634 44.4849L54.381 17.0427C54.9907 16.4107 55.719 15.9051 56.5244 15.5547C57.3297 15.2044 58.1962 15.0162 59.0744 15.001C59.9526 14.9858 60.8251 15.1438 61.6421 15.466C62.4591 15.7882 63.2046 16.2683 63.8358 16.8788L69.8181 22.6523L64.1139 28.5613Z" fill="#4C9FE3"/>
<path d="M77.1139 28.5613L73.3491 24.9332C73.2017 24.7903 73.0276 24.6778 72.8367 24.6022C72.6458 24.5266 72.4418 24.4894 72.2365 24.4927C72.0312 24.4961 71.8285 24.5398 71.6402 24.6215C71.4518 24.7032 71.2814 24.8213 71.1387 24.9689L48.9206 47.9776C48.7781 48.1254 48.6661 48.2998 48.5911 48.4909C48.5161 48.682 48.4795 48.886 48.4835 49.0913C48.4875 49.2965 48.5319 49.499 48.6143 49.687C48.6966 49.8751 48.8152 50.0451 48.9634 50.1872L71.6378 72.0697C71.7856 72.2122 71.9601 72.3241 72.1513 72.3991C72.3425 72.4741 72.5466 72.5107 72.7519 72.5067C72.9572 72.5027 73.1597 72.4583 73.3478 72.376C73.536 72.2937 73.706 72.175 73.8482 72.0269L96.0306 49.0254C96.1766 48.8815 96.2925 48.71 96.3716 48.521C96.4507 48.3319 96.4914 48.129 96.4914 47.9241C96.4914 47.7192 96.4507 47.5163 96.3716 47.3273C96.2925 47.1382 96.1766 46.9668 96.0306 46.8229L87.4742 38.5261L93.1785 32.6171L103.96 43.0594C105.235 44.2912 105.968 45.9788 105.999 47.7512C106.03 49.5236 105.355 51.2356 104.124 52.5109L77.6059 79.9602C76.3736 81.2349 74.6854 81.9683 72.9124 81.999C71.1395 82.0297 69.4268 81.3554 68.1511 80.1242L41.0559 53.9436C39.7764 52.7144 39.0375 51.0277 39.0014 49.2541C38.9653 47.4805 39.635 45.7652 40.8634 44.4849L67.381 17.0427C67.9907 16.4107 68.719 15.9051 69.5244 15.5547C70.3297 15.2044 71.1962 15.0162 72.0744 15.001C72.9526 14.9858 73.8251 15.1438 74.6421 15.466C75.4591 15.7882 76.2046 16.2683 76.8358 16.8788L82.8181 22.6523L77.1139 28.5613Z" fill="#4C9FE3"/>
<path d="M90.1139 28.5613L86.3491 24.9332C86.2017 24.7903 86.0276 24.6778 85.8367 24.6022C85.6458 24.5266 85.4418 24.4894 85.2365 24.4927C85.0312 24.4961 84.8285 24.5398 84.6402 24.6215C84.4518 24.7032 84.2814 24.8213 84.1387 24.9689L61.9206 47.9776C61.7781 48.1254 61.6661 48.2998 61.5911 48.4909C61.5161 48.682 61.4795 48.886 61.4835 49.0913C61.4875 49.2965 61.5319 49.499 61.6143 49.687C61.6966 49.8751 61.8152 50.0451 61.9634 50.1872L84.6378 72.0697C84.7856 72.2122 84.9601 72.3241 85.1513 72.3991C85.3425 72.4741 85.5466 72.5107 85.7519 72.5067C85.9572 72.5027 86.1597 72.4583 86.3478 72.376C86.536 72.2937 86.706 72.175 86.8482 72.0269L109.031 49.0254C109.177 48.8815 109.292 48.71 109.372 48.521C109.451 48.3319 109.491 48.129 109.491 47.9241C109.491 47.7192 109.451 47.5163 109.372 47.3273C109.292 47.1382 109.177 46.9668 109.031 46.8229L100.474 38.5261L106.178 32.6171L116.96 43.0594C118.235 44.2912 118.968 45.9788 118.999 47.7512C119.03 49.5236 118.355 51.2356 117.124 52.5109L90.6059 79.9602C89.3736 81.2349 87.6854 81.9683 85.9124 81.999C84.1395 82.0297 82.4268 81.3554 81.1511 80.1242L54.0559 53.9436C52.7764 52.7144 52.0375 51.0277 52.0014 49.2541C51.9653 47.4805 52.635 45.7652 53.8634 44.4849L80.381 17.0427C80.9907 16.4107 81.719 15.9051 82.5244 15.5547C83.3297 15.2044 84.1962 15.0162 85.0744 15.001C85.9526 14.9858 86.8251 15.1438 87.6421 15.466C88.4591 15.7882 89.2046 16.2683 89.8358 16.8788L95.8181 22.6523L90.1139 28.5613Z" fill="#4C9FE3"/>
<path d="M144.656 23.734H151.625L164.942 42.916L178.328 23.734H185.297L168.323 47.401L186.608 73H179.639L164.942 51.886L150.314 73H143.345L161.492 47.401L144.656 23.734ZM214.879 23.734H236.89C241.444 23.734 245.101 24.838 247.792 27.046C250.414 29.254 251.725 32.29 251.725 36.154C251.725 38.914 250.966 41.329 249.517 43.33C247.999 45.124 245.998 46.435 243.514 47.263C246.757 47.815 249.241 49.195 251.035 51.265C252.829 53.335 253.795 55.957 253.795 59.269C253.795 64.099 252.07 67.687 248.689 70.033C245.791 71.965 241.789 73 236.752 73H214.879V23.734ZM220.537 28.495V45.262H235.51C238.96 45.262 241.582 44.503 243.376 43.123C245.17 41.674 246.136 39.535 246.136 36.706C246.136 33.946 245.239 31.876 243.445 30.496C241.651 29.116 239.029 28.495 235.579 28.495H220.537ZM220.537 49.954V68.239H236.269C239.719 68.239 242.41 67.549 244.48 66.307C246.895 64.789 248.137 62.374 248.137 59.2C248.137 56.026 247.033 53.68 244.963 52.162C242.962 50.644 240.064 49.954 236.269 49.954H220.537ZM261.989 22.768H267.44V73H261.989V22.768ZM293.064 36.361C298.377 36.361 302.655 38.155 305.829 41.881C308.865 45.4 310.383 49.816 310.383 55.198C310.383 60.511 308.865 64.927 305.898 68.377C302.655 72.103 298.377 73.966 293.064 73.966C287.682 73.966 283.473 72.103 280.299 68.377C277.263 64.927 275.745 60.511 275.745 55.198C275.745 49.816 277.263 45.4 280.299 41.881C283.473 38.155 287.682 36.361 293.064 36.361ZM293.064 40.984C289.269 40.984 286.302 42.433 284.232 45.331C282.3 47.953 281.403 51.196 281.403 55.198C281.403 59.131 282.3 62.374 284.232 64.996C286.302 67.894 289.269 69.343 293.064 69.343C296.79 69.343 299.757 67.894 301.965 64.996C303.828 62.374 304.794 59.062 304.794 55.198C304.794 51.196 303.828 47.953 301.965 45.331C299.757 42.433 296.79 40.984 293.064 40.984ZM332.251 36.361C337.633 36.361 341.635 38.707 344.257 43.468V37.327H349.777V70.516C349.777 81.901 344.326 87.628 333.493 87.628C328.663 87.628 324.937 86.662 322.453 84.73C319.9 82.798 318.313 79.9 317.692 76.036H323.212C323.626 78.451 324.661 80.245 326.248 81.349C327.835 82.522 330.25 83.143 333.493 83.143C340.669 83.143 344.257 79.141 344.257 71.275V64.996C341.635 69.757 337.633 72.172 332.251 72.172C327.283 72.172 323.35 70.447 320.452 67.066C317.554 63.754 316.174 59.545 316.174 54.37C316.174 49.126 317.554 44.917 320.452 41.605C323.35 38.086 327.283 36.361 332.251 36.361ZM333.079 40.915C329.491 40.915 326.731 42.157 324.73 44.779C322.798 47.125 321.832 50.368 321.832 54.37C321.832 58.096 322.66 61.201 324.385 63.547C326.317 66.169 329.146 67.549 333.01 67.549C336.598 67.549 339.358 66.307 341.428 63.823C343.36 61.408 344.326 58.234 344.326 54.37C344.326 50.368 343.36 47.125 341.428 44.779C339.358 42.157 336.598 40.915 333.079 40.915Z" fill="#A1ABBE"/>
</svg>
