<svg width="129" height="52" viewBox="0 0 129 52" fill="none" xmlns="http://www.w3.org/2000/svg">
<path d="M0.138 44L5.451 22.886C5.267 22.012 5.014 21 4.692 19.85C4.37 18.654 4.048 17.458 3.726 16.262C3.404 15.02 3.105 13.939 2.829 13.019C2.599 12.099 2.3 11.041 1.932 9.845C1.61 8.649 1.288 7.453 0.966 6.257C0.69 5.061 0.437 4.049 0.207 3.221H13.524L14.007 5.498C14.053 4.762 14.191 4.003 14.421 3.221H28.428L23.322 22.955L28.221 44H14.973L14.559 41.723C14.513 42.459 14.375 43.218 14.145 44H0.138ZM1.725 42.758H13.179C13.547 40.458 13.961 38.112 14.421 35.72L15.939 42.758H26.772L22.149 22.886L26.841 4.463H15.456L14.835 7.913C14.743 8.511 14.628 9.109 14.49 9.707C14.352 10.305 14.237 10.903 14.145 11.501L12.627 4.463H1.794L6.693 22.886L1.725 42.758ZM2.484 42.137L7.314 22.886L2.622 5.084H12.144L14.214 14.813L15.939 5.084H26.082L21.459 22.886L25.944 42.137H16.422L14.352 32.477L12.627 42.137H2.484ZM29.1913 44V3.221H44.7163C47.9823 3.221 50.3283 3.98 51.7543 5.498C53.2263 7.016 53.9623 8.994 53.9623 11.432V15.434C53.9623 18.148 53.2493 20.31 51.8233 21.92C53.8473 23.392 54.8593 25.899 54.8593 29.441V34.271C54.8593 37.951 53.9163 40.504 52.0303 41.93C50.1443 43.31 47.5223 44 44.1643 44H29.1913ZM30.3643 42.758H44.1643C47.2003 42.758 49.5233 42.137 51.1333 40.895C52.7893 39.653 53.6173 37.445 53.6173 34.271V29.441C53.6173 25.393 52.2373 22.955 49.4773 22.127C50.6273 21.483 51.4553 20.586 51.9613 19.436C52.4673 18.24 52.7203 16.906 52.7203 15.434V11.432C52.7203 9.362 52.0993 7.683 50.8573 6.395C49.6153 5.107 47.5683 4.463 44.7163 4.463H30.3643V42.758ZM30.9163 42.137V5.084H44.7163C47.3383 5.084 49.2243 5.682 50.3743 6.878C51.5703 8.028 52.1683 9.546 52.1683 11.432V15.434C52.1683 17.182 51.7543 18.7 50.9263 19.988C50.1443 21.23 48.8103 21.966 46.9243 22.196V22.334C48.6263 22.334 50.0753 22.909 51.2713 24.059C52.4673 25.209 53.0653 27.003 53.0653 29.441V34.271C53.0653 37.261 52.2603 39.331 50.6503 40.481C49.0863 41.585 46.9243 42.137 44.1643 42.137H30.9163ZM40.7833 20.333H41.5423C42.0023 20.333 42.3243 19.85 42.5083 18.884C42.6003 18.378 42.6693 17.849 42.7153 17.297C42.7613 16.699 42.7843 16.055 42.7843 15.365C42.7843 14.629 42.7613 13.962 42.7153 13.364C42.7153 12.766 42.6923 12.237 42.6463 11.777C42.6003 10.811 42.2783 10.328 41.6803 10.328H40.7833V20.333ZM41.4043 19.712V11.018H41.6803C41.9103 11.018 42.0483 11.432 42.0943 12.26C42.1403 12.72 42.1633 13.203 42.1633 13.709C42.1633 14.215 42.1633 14.767 42.1633 15.365C42.1633 15.963 42.1403 16.515 42.0943 17.021C42.0943 17.527 42.0713 17.987 42.0253 18.401C41.9793 19.275 41.8183 19.712 41.5423 19.712H41.4043ZM40.7833 37.031H41.6803C42.0943 37.031 42.3933 36.525 42.5773 35.513C42.7153 34.455 42.7843 33.213 42.7843 31.787C42.7843 31.051 42.7613 30.384 42.7153 29.786C42.7153 29.142 42.6923 28.567 42.6463 28.061C42.6003 27.049 42.2783 26.543 41.6803 26.543H40.7833V37.031ZM41.4043 36.41V27.164H41.6803C41.9103 27.164 42.0483 27.601 42.0943 28.475C42.1403 28.935 42.1633 29.441 42.1633 29.993C42.1633 30.545 42.1633 31.143 42.1633 31.787C42.1633 32.431 42.1633 33.029 42.1633 33.581C42.1633 34.087 42.1403 34.57 42.0943 35.03C42.0023 35.95 41.8643 36.41 41.6803 36.41H41.4043ZM55.6054 44V0.529996H66.3694V44H55.6054ZM56.5714 42.758H65.4034V1.772H56.5714V42.758ZM57.1234 42.137V2.393H64.8514V42.137H57.1234ZM79.3985 44.759C76.6385 44.759 74.3845 44.437 72.6365 43.793C70.8885 43.103 69.5775 41.838 68.7035 39.998C67.8755 38.158 67.4615 35.444 67.4615 31.856V19.091C67.4615 15.365 68.4965 12.789 70.5665 11.363C72.6365 9.937 75.5805 9.224 79.3985 9.224C83.2165 9.224 86.1605 9.937 88.2305 11.363C90.3005 12.789 91.3355 15.365 91.3355 19.091V31.856C91.3355 35.444 90.8985 38.158 90.0245 39.998C89.1505 41.838 87.8395 43.103 86.0915 43.793C84.3435 44.437 82.1125 44.759 79.3985 44.759ZM79.3985 43.517C81.8825 43.517 83.9065 43.218 85.4705 42.62C87.0805 42.022 88.2535 40.895 88.9895 39.239C89.7715 37.537 90.1625 35.076 90.1625 31.856V19.091C90.1625 15.779 89.2195 13.525 87.3335 12.329C85.4935 11.087 82.8485 10.466 79.3985 10.466C75.9485 10.466 73.2805 11.087 71.3945 12.329C69.5545 13.525 68.6345 15.779 68.6345 19.091V31.856C68.6345 35.076 69.0025 37.537 69.7385 39.239C70.5205 40.895 71.7165 42.022 73.3265 42.62C74.9365 43.218 76.9605 43.517 79.3985 43.517ZM79.3985 42.896C77.0525 42.896 75.1205 42.62 73.6025 42.068C72.0845 41.47 70.9575 40.389 70.2215 38.825C69.5315 37.215 69.1865 34.892 69.1865 31.856V19.091C69.1865 16.009 70.0605 13.916 71.8085 12.812C73.5565 11.662 76.0865 11.087 79.3985 11.087C82.6645 11.087 85.1715 11.662 86.9195 12.812C88.6675 13.916 89.5415 16.009 89.5415 19.091V31.856C89.5415 34.892 89.1735 37.215 88.4375 38.825C87.7475 40.389 86.6435 41.47 85.1255 42.068C83.6535 42.62 81.7445 42.896 79.3985 42.896ZM79.3985 37.928C79.8585 37.928 80.1345 37.744 80.2265 37.376C80.3185 36.962 80.3645 36.594 80.3645 36.272V17.642C80.3645 16.998 80.2955 16.561 80.1575 16.331C80.0195 16.101 79.7665 15.986 79.3985 15.986C79.0765 15.986 78.8235 16.101 78.6395 16.331C78.4555 16.515 78.3635 16.952 78.3635 17.642V36.272C78.3635 36.732 78.4095 37.123 78.5015 37.445C78.6395 37.767 78.9385 37.928 79.3985 37.928ZM79.3985 37.307C79.1225 37.307 78.9845 36.962 78.9845 36.272V17.642C78.9845 16.952 79.1225 16.607 79.3985 16.607C79.6745 16.607 79.8125 16.952 79.8125 17.642V36.272C79.8125 36.962 79.6745 37.307 79.3985 37.307ZM104.746 51.176C103.918 51.176 102.952 51.084 101.848 50.9C100.744 50.762 99.6628 50.578 98.6048 50.348C97.5468 50.118 96.6728 49.934 95.9828 49.796V41.378C94.5568 40.596 93.5908 39.262 93.0848 37.376C92.5788 35.444 92.3258 32.914 92.3258 29.786V17.504C92.3258 15.25 92.7168 13.502 93.4988 12.26C94.2808 10.972 95.2698 10.075 96.4658 9.569C97.7078 9.063 98.9728 8.81 100.261 8.81C102.193 8.81 103.688 9.178 104.746 9.914L105.091 9.086H116.2V35.444C116.2 37.468 116.085 39.423 115.855 41.309C115.625 43.195 115.119 44.874 114.337 46.346C113.601 47.818 112.474 48.991 110.956 49.865C109.438 50.739 107.368 51.176 104.746 51.176ZM104.746 49.934C107.092 49.934 108.955 49.52 110.335 48.692C111.715 47.864 112.727 46.76 113.371 45.38C114.061 44 114.498 42.459 114.682 40.757C114.912 39.009 115.027 37.238 115.027 35.444V10.397H105.85L105.16 11.984C104.7 11.478 104.079 11.041 103.297 10.673C102.515 10.259 101.503 10.052 100.261 10.052C99.2028 10.052 98.1448 10.282 97.0868 10.742C96.0748 11.156 95.2238 11.892 94.5338 12.95C93.8438 14.008 93.4988 15.526 93.4988 17.504V29.786C93.4988 32.684 93.7058 34.938 94.1198 36.548C94.5798 38.112 95.2928 39.216 96.2588 39.86C97.2248 40.504 98.4898 40.826 100.054 40.826C101.342 40.826 102.331 40.665 103.021 40.343C103.757 39.975 104.309 39.538 104.677 39.032V40.619C104.677 41.723 104.355 42.436 103.711 42.758C103.067 43.08 102.285 43.241 101.365 43.241C100.721 43.241 99.8928 43.126 98.8808 42.896L97.1558 42.482V48.83C97.9378 49.06 99.0418 49.29 100.468 49.52C101.94 49.796 103.366 49.934 104.746 49.934ZM104.746 49.313C103.412 49.313 102.078 49.198 100.744 48.968C99.4558 48.784 98.4438 48.577 97.7078 48.347V43.31L99.0878 43.586C99.4558 43.678 99.8468 43.747 100.261 43.793C100.675 43.839 101.043 43.862 101.365 43.862C102.423 43.862 103.32 43.655 104.056 43.241C104.838 42.827 105.229 41.953 105.229 40.619V36.548C104.815 37.238 104.447 37.859 104.125 38.411C103.849 38.963 103.412 39.4 102.814 39.722C102.262 39.998 101.342 40.136 100.054 40.136C98.5818 40.136 97.4088 39.86 96.5348 39.308C95.6608 38.71 95.0168 37.652 94.6028 36.134C94.2348 34.616 94.0508 32.5 94.0508 29.786V17.504C94.0508 15.71 94.3498 14.33 94.9478 13.364C95.5918 12.352 96.3738 11.662 97.2938 11.294C98.2598 10.88 99.2488 10.673 100.261 10.673C101.825 10.673 102.952 10.949 103.642 11.501C104.332 12.007 104.861 12.582 105.229 13.226L106.195 11.018H114.406V35.444C114.406 37.146 114.314 38.825 114.13 40.481C113.946 42.137 113.532 43.632 112.888 44.966C112.29 46.3 111.324 47.358 109.99 48.14C108.702 48.922 106.954 49.313 104.746 49.313ZM104.263 34.478C104.539 34.478 104.769 34.34 104.953 34.064C105.137 33.834 105.229 33.328 105.229 32.546V16.676L104.953 16.607C104.815 16.561 104.677 16.538 104.539 16.538C104.447 16.492 104.355 16.469 104.263 16.469C103.987 16.469 103.734 16.584 103.504 16.814C103.32 17.044 103.228 17.55 103.228 18.332V32.546C103.228 33.328 103.32 33.834 103.504 34.064C103.734 34.34 103.987 34.478 104.263 34.478ZM104.263 33.788C104.125 33.788 104.033 33.696 103.987 33.512C103.895 33.328 103.849 33.006 103.849 32.546V18.332C103.849 17.504 103.987 17.09 104.263 17.09H104.677V32.546C104.677 33.006 104.631 33.328 104.539 33.512C104.493 33.696 104.401 33.788 104.263 33.788ZM123.53 44.552C122.104 44.552 120.862 44.046 119.804 43.034C118.792 42.022 118.286 40.849 118.286 39.515C118.286 38.043 118.792 36.824 119.804 35.858C120.816 34.892 122.058 34.409 123.53 34.409C125.002 34.409 126.267 34.892 127.325 35.858C128.383 36.824 128.912 38.043 128.912 39.515C128.912 40.849 128.383 42.022 127.325 43.034C126.267 44.046 125.002 44.552 123.53 44.552ZM123.53 43.586C124.772 43.586 125.807 43.195 126.635 42.413C127.509 41.585 127.946 40.619 127.946 39.515C127.946 38.319 127.509 37.33 126.635 36.548C125.807 35.766 124.772 35.375 123.53 35.375C122.334 35.375 121.322 35.766 120.494 36.548C119.666 37.33 119.252 38.319 119.252 39.515C119.252 40.619 119.666 41.585 120.494 42.413C121.322 43.195 122.334 43.586 123.53 43.586ZM123.53 43.103C122.472 43.103 121.575 42.758 120.839 42.068C120.149 41.332 119.804 40.481 119.804 39.515C119.804 38.503 120.149 37.652 120.839 36.962C121.575 36.226 122.472 35.858 123.53 35.858C124.588 35.858 125.485 36.226 126.221 36.962C127.003 37.652 127.394 38.503 127.394 39.515C127.394 40.481 127.003 41.332 126.221 42.068C125.485 42.758 124.588 43.103 123.53 43.103Z" fill="#A1ABBE"/>
</svg>
