<svg width="364" height="95" viewBox="0 0 364 95" fill="none" xmlns="http://www.w3.org/2000/svg">
<path d="M51.1139 28.0613L47.3491 24.4332C47.2017 24.2903 47.0276 24.1778 46.8367 24.1022C46.6458 24.0266 46.4418 23.9894 46.2365 23.9927C46.0312 23.9961 45.8285 24.0398 45.6402 24.1215C45.4518 24.2032 45.2814 24.3213 45.1387 24.4689L22.9206 47.4776C22.7781 47.6254 22.6661 47.7998 22.5911 47.9909C22.5161 48.182 22.4795 48.386 22.4835 48.5913C22.4875 48.7965 22.5319 48.999 22.6143 49.187C22.6966 49.3751 22.8152 49.5451 22.9634 49.6872L45.6378 71.5697C45.7856 71.7122 45.9601 71.8241 46.1513 71.8991C46.3425 71.9741 46.5466 72.0107 46.7519 72.0067C46.9572 72.0027 47.1597 71.9583 47.3478 71.876C47.536 71.7937 47.706 71.675 47.8482 71.5269L70.0306 48.5254C70.1766 48.3815 70.2925 48.21 70.3716 48.021C70.4507 47.8319 70.4914 47.629 70.4914 47.4241C70.4914 47.2192 70.4507 47.0163 70.3716 46.8273C70.2925 46.6382 70.1766 46.4668 70.0306 46.3229L61.4742 38.0261L67.1785 32.1171L77.9595 42.5594C79.2347 43.7912 79.9682 45.4788 79.999 47.2512C80.0297 49.0236 79.3552 50.7356 78.1235 52.0109L51.6059 79.4602C50.3736 80.7349 48.6854 81.4683 46.9124 81.499C45.1395 81.5297 43.4268 80.8554 42.1511 79.6242L15.0559 53.4436C13.7764 52.2144 13.0375 50.5277 13.0014 48.7541C12.9653 46.9805 13.635 45.2652 14.8634 43.9849L41.381 16.5427C41.9907 15.9107 42.719 15.4051 43.5244 15.0547C44.3297 14.7044 45.1962 14.5162 46.0744 14.501C46.9526 14.4858 47.8251 14.6438 48.6421 14.966C49.4591 15.2882 50.2046 15.7683 50.8358 16.3788L56.8181 22.1523L51.1139 28.0613Z" fill="#4C9FE3"/>
<path d="M64.1139 28.0613L60.3491 24.4332C60.2017 24.2903 60.0276 24.1778 59.8367 24.1022C59.6458 24.0266 59.4418 23.9894 59.2365 23.9927C59.0312 23.9961 58.8285 24.0398 58.6402 24.1215C58.4518 24.2032 58.2814 24.3213 58.1387 24.4689L35.9206 47.4776C35.7781 47.6254 35.6661 47.7998 35.5911 47.9909C35.5161 48.182 35.4795 48.386 35.4835 48.5913C35.4875 48.7965 35.5319 48.999 35.6143 49.187C35.6966 49.3751 35.8152 49.5451 35.9634 49.6872L58.6378 71.5697C58.7856 71.7122 58.9601 71.8241 59.1513 71.8991C59.3425 71.9741 59.5466 72.0107 59.7519 72.0067C59.9572 72.0027 60.1597 71.9583 60.3478 71.876C60.536 71.7937 60.706 71.675 60.8482 71.5269L83.0306 48.5254C83.1766 48.3815 83.2925 48.21 83.3716 48.021C83.4507 47.8319 83.4914 47.629 83.4914 47.4241C83.4914 47.2192 83.4507 47.0163 83.3716 46.8273C83.2925 46.6382 83.1766 46.4668 83.0306 46.3229L74.4742 38.0261L80.1785 32.1171L90.9595 42.5594C92.2347 43.7912 92.9682 45.4788 92.999 47.2512C93.0297 49.0236 92.3552 50.7356 91.1235 52.0109L64.6059 79.4602C63.3736 80.7349 61.6854 81.4683 59.9124 81.499C58.1395 81.5297 56.4268 80.8554 55.1511 79.6242L28.0559 53.4436C26.7764 52.2144 26.0375 50.5277 26.0014 48.7541C25.9653 46.9805 26.635 45.2652 27.8634 43.9849L54.381 16.5427C54.9907 15.9107 55.719 15.4051 56.5244 15.0547C57.3297 14.7044 58.1962 14.5162 59.0744 14.501C59.9526 14.4858 60.8251 14.6438 61.6421 14.966C62.4591 15.2882 63.2046 15.7683 63.8358 16.3788L69.8181 22.1523L64.1139 28.0613Z" fill="#4C9FE3"/>
<path d="M77.1139 28.0613L73.3491 24.4332C73.2017 24.2903 73.0276 24.1778 72.8367 24.1022C72.6458 24.0266 72.4418 23.9894 72.2365 23.9927C72.0312 23.9961 71.8285 24.0398 71.6402 24.1215C71.4518 24.2032 71.2814 24.3213 71.1387 24.4689L48.9206 47.4776C48.7781 47.6254 48.6661 47.7998 48.5911 47.9909C48.5161 48.182 48.4795 48.386 48.4835 48.5913C48.4875 48.7965 48.5319 48.999 48.6143 49.187C48.6966 49.3751 48.8152 49.5451 48.9634 49.6872L71.6378 71.5697C71.7856 71.7122 71.9601 71.8241 72.1513 71.8991C72.3425 71.9741 72.5466 72.0107 72.7519 72.0067C72.9572 72.0027 73.1597 71.9583 73.3478 71.876C73.536 71.7937 73.706 71.675 73.8482 71.5269L96.0306 48.5254C96.1766 48.3815 96.2925 48.21 96.3716 48.021C96.4507 47.8319 96.4914 47.629 96.4914 47.4241C96.4914 47.2192 96.4507 47.0163 96.3716 46.8273C96.2925 46.6382 96.1766 46.4668 96.0306 46.3229L87.4742 38.0261L93.1785 32.1171L103.96 42.5594C105.235 43.7912 105.968 45.4788 105.999 47.2512C106.03 49.0236 105.355 50.7356 104.124 52.0109L77.6059 79.4602C76.3736 80.7349 74.6854 81.4683 72.9124 81.499C71.1395 81.5297 69.4268 80.8554 68.1511 79.6242L41.0559 53.4436C39.7764 52.2144 39.0375 50.5277 39.0014 48.7541C38.9653 46.9805 39.635 45.2652 40.8634 43.9849L67.381 16.5427C67.9907 15.9107 68.719 15.4051 69.5244 15.0547C70.3297 14.7044 71.1962 14.5162 72.0744 14.501C72.9526 14.4858 73.8251 14.6438 74.6421 14.966C75.4591 15.2882 76.2046 15.7683 76.8358 16.3788L82.8181 22.1523L77.1139 28.0613Z" fill="#4C9FE3"/>
<path d="M90.1139 28.0613L86.3491 24.4332C86.2017 24.2903 86.0276 24.1778 85.8367 24.1022C85.6458 24.0266 85.4418 23.9894 85.2365 23.9927C85.0312 23.9961 84.8285 24.0398 84.6402 24.1215C84.4518 24.2032 84.2814 24.3213 84.1387 24.4689L61.9206 47.4776C61.7781 47.6254 61.6661 47.7998 61.5911 47.9909C61.5161 48.182 61.4795 48.386 61.4835 48.5913C61.4875 48.7965 61.5319 48.999 61.6143 49.187C61.6966 49.3751 61.8152 49.5451 61.9634 49.6872L84.6378 71.5697C84.7856 71.7122 84.9601 71.8241 85.1513 71.8991C85.3425 71.9741 85.5466 72.0107 85.7519 72.0067C85.9572 72.0027 86.1597 71.9583 86.3478 71.876C86.536 71.7937 86.706 71.675 86.8482 71.5269L109.031 48.5254C109.177 48.3815 109.292 48.21 109.372 48.021C109.451 47.8319 109.491 47.629 109.491 47.4241C109.491 47.2192 109.451 47.0163 109.372 46.8273C109.292 46.6382 109.177 46.4668 109.031 46.3229L100.474 38.0261L106.178 32.1171L116.96 42.5594C118.235 43.7912 118.968 45.4788 118.999 47.2512C119.03 49.0236 118.355 50.7356 117.124 52.0109L90.6059 79.4602C89.3736 80.7349 87.6854 81.4683 85.9124 81.499C84.1395 81.5297 82.4268 80.8554 81.1511 79.6242L54.0559 53.4436C52.7764 52.2144 52.0375 50.5277 52.0014 48.7541C51.9653 46.9805 52.635 45.2652 53.8634 43.9849L80.381 16.5427C80.9907 15.9107 81.719 15.4051 82.5244 15.0547C83.3297 14.7044 84.1962 14.5162 85.0744 14.501C85.9526 14.4858 86.8251 14.6438 87.6421 14.966C88.4591 15.2882 89.2046 15.7683 89.8358 16.3788L95.8181 22.1523L90.1139 28.0613Z" fill="#4C9FE3"/>
<path d="M144.656 23.234H151.625L164.942 42.416L178.328 23.234H185.297L168.323 46.901L186.608 72.5H179.639L164.942 51.386L150.314 72.5H143.345L161.492 46.901L144.656 23.234ZM214.879 23.234H236.89C241.444 23.234 245.101 24.338 247.792 26.546C250.414 28.754 251.725 31.79 251.725 35.654C251.725 38.414 250.966 40.829 249.517 42.83C247.999 44.624 245.998 45.935 243.514 46.763C246.757 47.315 249.241 48.695 251.035 50.765C252.829 52.835 253.795 55.457 253.795 58.769C253.795 63.599 252.07 67.187 248.689 69.533C245.791 71.465 241.789 72.5 236.752 72.5H214.879V23.234ZM220.537 27.995V44.762H235.51C238.96 44.762 241.582 44.003 243.376 42.623C245.17 41.174 246.136 39.035 246.136 36.206C246.136 33.446 245.239 31.376 243.445 29.996C241.651 28.616 239.029 27.995 235.579 27.995H220.537ZM220.537 49.454V67.739H236.269C239.719 67.739 242.41 67.049 244.48 65.807C246.895 64.289 248.137 61.874 248.137 58.7C248.137 55.526 247.033 53.18 244.963 51.662C242.962 50.144 240.064 49.454 236.269 49.454H220.537ZM261.989 22.268H267.44V72.5H261.989V22.268ZM293.064 35.861C298.377 35.861 302.655 37.655 305.829 41.381C308.865 44.9 310.383 49.316 310.383 54.698C310.383 60.011 308.865 64.427 305.898 67.877C302.655 71.603 298.377 73.466 293.064 73.466C287.682 73.466 283.473 71.603 280.299 67.877C277.263 64.427 275.745 60.011 275.745 54.698C275.745 49.316 277.263 44.9 280.299 41.381C283.473 37.655 287.682 35.861 293.064 35.861ZM293.064 40.484C289.269 40.484 286.302 41.933 284.232 44.831C282.3 47.453 281.403 50.696 281.403 54.698C281.403 58.631 282.3 61.874 284.232 64.496C286.302 67.394 289.269 68.843 293.064 68.843C296.79 68.843 299.757 67.394 301.965 64.496C303.828 61.874 304.794 58.562 304.794 54.698C304.794 50.696 303.828 47.453 301.965 44.831C299.757 41.933 296.79 40.484 293.064 40.484ZM332.251 35.861C337.633 35.861 341.635 38.207 344.257 42.968V36.827H349.777V70.016C349.777 81.401 344.326 87.128 333.493 87.128C328.663 87.128 324.937 86.162 322.453 84.23C319.9 82.298 318.313 79.4 317.692 75.536H323.212C323.626 77.951 324.661 79.745 326.248 80.849C327.835 82.022 330.25 82.643 333.493 82.643C340.669 82.643 344.257 78.641 344.257 70.775V64.496C341.635 69.257 337.633 71.672 332.251 71.672C327.283 71.672 323.35 69.947 320.452 66.566C317.554 63.254 316.174 59.045 316.174 53.87C316.174 48.626 317.554 44.417 320.452 41.105C323.35 37.586 327.283 35.861 332.251 35.861ZM333.079 40.415C329.491 40.415 326.731 41.657 324.73 44.279C322.798 46.625 321.832 49.868 321.832 53.87C321.832 57.596 322.66 60.701 324.385 63.047C326.317 65.669 329.146 67.049 333.01 67.049C336.598 67.049 339.358 65.807 341.428 63.323C343.36 60.908 344.326 57.734 344.326 53.87C344.326 49.868 343.36 46.625 341.428 44.279C339.358 41.657 336.598 40.415 333.079 40.415Z" fill="#2D3849"/>
</svg>
